<?xml version="1.0"?>
<svg xmlns="http://www.w3.org/2000/svg" id="Capa_1" enable-background="new 0 0 512 512" height="512px" viewBox="0 0 512 512" width="512px" class=""><g><g><g><g><g><g><g><g><circle cx="256" cy="256" fill="#bfe1ff" r="256" data-original="#BFE1FF" class="active-path" style="fill:#ACDAFF" data-old_color="#bfe1ff"/></g></g></g></g></g></g><path d="m173.884 393.321 116.403 116.403c125.172-16.755 221.713-123.965 221.713-253.724 0-12.765-.935-25.312-2.739-37.576l-108.381-108.382z" fill="#87c7ff" data-original="#87C7FF" class="" style="fill:#BFE1FF" data-old_color="#87c7ff"/><g><path d="m256 449.895c123.714-63.014 144.88-145.034 144.88-185.279 0-49.461 0-154.575 0-154.575l-144.88-59.936-144.879 59.937v154.575c0 40.244 21.166 122.264 144.879 185.278z" fill="#7584f2" data-original="#7584F2" class="" style="fill:#FA41CC" data-old_color="#7584f2"/></g><g><path d="m256 50.105v399.791c123.688-63.013 144.88-145.037 144.88-185.279 0-49.461 0-154.575 0-154.575z" fill="#606aea" data-original="#606AEA" class="" style="fill:#6920B0" data-old_color="#606aea"/></g><g><path d="m171.912 312.209c-15.329-18.726-24.527-42.666-24.527-68.754 0-59.986 48.628-108.615 108.615-108.615s108.615 48.628 108.615 108.615c0 26.115-9.216 50.077-24.574 68.812z" fill="#4855b7" data-original="#4855B7" class=""/></g><g><path d="m364.615 243.455c0-59.977-48.613-108.599-108.586-108.614v217.229c59.972-.016 108.586-48.638 108.586-108.615z" fill="#27488f" data-original="#27488F" class=""/></g><g><circle cx="256" cy="198.17" fill="#fff" r="45.285" data-original="#FFF" class=""/></g><g><path d="m301.285 198.17c0-25.001-20.26-45.269-45.257-45.284v90.568c24.997-.015 45.257-20.284 45.257-45.284z" fill="#e9edf5" data-original="#E9EDF5" class="" style="fill:#E9EDF5"/></g><g><path d="m256 352.069c33.898 0 64.169-15.529 84.088-39.861-13.653-32.994-46.159-56.208-84.088-56.208s-70.435 23.214-84.088 56.208c19.919 24.332 50.19 39.861 84.088 39.861z" fill="#fff" data-original="#FFF" class=""/></g><g><path d="m340.088 312.208c-13.649-32.986-46.143-56.196-84.06-56.208v96.069c33.887-.009 64.147-15.536 84.06-39.861z" fill="#e9edf5" data-original="#E9EDF5" class="" style="fill:#E9EDF5"/></g></g></g> </svg>
